<svg xmlns="http://www.w3.org/2000/svg" viewBox="0 0 1500 620" width="1500" height="620" font-family="Georgia, serif">
  <defs>
    <marker id="arr" markerWidth="8" markerHeight="8" refX="6" refY="3" orient="auto">
      <path d="M0,0 L0,6 L8,3 z" fill="#6b6b6b"/>
    </marker>
    <marker id="arr-red" markerWidth="8" markerHeight="8" refX="6" refY="3" orient="auto">
      <path d="M0,0 L0,6 L8,3 z" fill="#c0392b"/>
    </marker>
    <marker id="arr-green" markerWidth="8" markerHeight="8" refX="6" refY="3" orient="auto">
      <path d="M0,0 L0,6 L8,3 z" fill="#27ae60"/>
    </marker>
    <marker id="arr-orange" markerWidth="8" markerHeight="8" refX="6" refY="3" orient="auto">
      <path d="M0,0 L0,6 L8,3 z" fill="#e67e22"/>
    </marker>
    <filter id="sh" x="-5%" y="-5%" width="115%" height="125%">
      <feDropShadow dx="1" dy="2" stdDeviation="2" flood-color="#00000015"/>
    </filter>
  </defs>

  <!-- Background -->
  <rect width="1500" height="620" fill="#f7f5f0"/>

  <!-- Title -->
  <text x="750" y="34" text-anchor="middle" font-size="14" font-weight="bold" fill="#2c2c2c" letter-spacing="1">3D TAHSILAT MODULU — AKIS DIYAGRAMI</text>
  <text x="750" y="50" text-anchor="middle" font-size="9.5" fill="#999" letter-spacing="2">ALLIANZ · MOBIL EKIP · HAYAT URUNLERI</text>
  <line x1="150" y1="60" x2="1350" y2="60" stroke="#ccc" stroke-width="0.5"/>

  <!-- ══ NODE 1: Mobil Uygulama ══ -->
  <rect x="28" y="215" width="122" height="56" rx="6" fill="#fff" stroke="#bbb" stroke-width="1.2" filter="url(#sh)"/>
  <text x="89" y="237" text-anchor="middle" font-size="10.5" font-weight="bold" fill="#2c2c2c">Mobil Uygulama</text>
  <text x="89" y="252" text-anchor="middle" font-size="8.5" fill="#888">Police Ekrani</text>
  <text x="89" y="264" text-anchor="middle" font-size="8.5" fill="#888">Kullanici Girisi</text>

  <line x1="150" y1="243" x2="182" y2="243" stroke="#6b6b6b" stroke-width="1.3" marker-end="url(#arr)"/>

  <!-- ══ NODE 2: Urun Kontrolu ══ -->
  <polygon points="242,215 302,243 242,271 182,243" fill="#fff" stroke="#bbb" stroke-width="1.2" filter="url(#sh)"/>
  <text x="242" y="239" text-anchor="middle" font-size="9.5" font-weight="bold" fill="#2c2c2c">Urun</text>
  <text x="242" y="252" text-anchor="middle" font-size="9.5" font-weight="bold" fill="#2c2c2c">Kontrolu</text>

  <text x="310" y="237" font-size="8.5" fill="#27ae60" font-weight="bold">E</text>
  <text x="242" y="292" text-anchor="middle" font-size="8.5" fill="#c0392b" font-weight="bold">H</text>

  <!-- Arrow 2→STOP -->
  <line x1="242" y1="271" x2="242" y2="315" stroke="#c0392b" stroke-width="1.2" marker-end="url(#arr-red)"/>
  <rect x="182" y="315" width="120" height="36" rx="18" fill="#fdecea" stroke="#c0392b" stroke-width="1.2"/>
  <text x="242" y="330" text-anchor="middle" font-size="9.5" fill="#c0392b" font-weight="bold">Islem Yok</text>
  <text x="242" y="344" text-anchor="middle" font-size="8" fill="#c0392b">Akis durur</text>

  <!-- Arrow 2→3 -->
  <line x1="302" y1="243" x2="337" y2="243" stroke="#27ae60" stroke-width="1.3" marker-end="url(#arr-green)"/>

  <!-- ══ NODE 3: Is Kurallari ══ -->
  <rect x="337" y="180" width="162" height="130" rx="6" fill="#fff" stroke="#bbb" stroke-width="1.2" filter="url(#sh)"/>
  <rect x="337" y="180" width="162" height="20" rx="6" fill="#e8e3d8"/>
  <rect x="337" y="192" width="162" height="8" fill="#e8e3d8"/>
  <text x="418" y="194" text-anchor="middle" font-size="9.5" font-weight="bold" fill="#2c2c2c">Is Kurallari Kontrolu</text>
  <text x="347" y="214" font-size="8" fill="#555">• Eksik tahsilat sorgusu</text>
  <text x="347" y="227" font-size="8" fill="#555">• Police statusu / durumu</text>
  <text x="347" y="240" font-size="8" fill="#555">• Odenmeyen borc</text>
  <text x="347" y="253" font-size="8" fill="#2c2c2c">• Odenebilir saat araligi kontrolu</text>
  <text x="347" y="266" font-size="8" fill="#2c2c2c">• Kur guncel mi? (T-1 check) ★</text>
  <text x="347" y="279" font-size="8" fill="#555">• Sorunlu police gecmisi</text>
  <text x="347" y="293" font-size="7.5" fill="#aaa">  migration / teknik tahsilat engeli</text>

  <!-- Arrow 3→4 -->
  <line x1="499" y1="245" x2="534" y2="245" stroke="#6b6b6b" stroke-width="1.3" marker-end="url(#arr)"/>

  <!-- ══ NODE 4: Ekran Yonlendirme ══ -->
  <rect x="534" y="150" width="165" height="188" rx="6" fill="#fff" stroke="#bbb" stroke-width="1.2" filter="url(#sh)"/>
  <rect x="534" y="150" width="165" height="20" rx="6" fill="#e8e3d8"/>
  <rect x="534" y="162" width="165" height="8" fill="#e8e3d8"/>
  <text x="616" y="164" text-anchor="middle" font-size="9.5" font-weight="bold" fill="#2c2c2c">Ekran Yonlendirme</text>

  <rect x="544" y="176" width="145" height="34" rx="4" fill="#edf7ed" stroke="#a8d5a2" stroke-width="0.8"/>
  <text x="554" y="189" font-size="8" fill="#27ae60" font-weight="bold">Statu X →</text>
  <text x="554" y="202" font-size="8" fill="#2c2c2c">Tek toplam tutar ekrani</text>

  <rect x="544" y="216" width="145" height="34" rx="4" fill="#edf7ed" stroke="#a8d5a2" stroke-width="0.8"/>
  <text x="554" y="229" font-size="8" fill="#27ae60" font-weight="bold">Statu Y →</text>
  <text x="554" y="242" font-size="8" fill="#2c2c2c">Vade listesi ekrani</text>

  <rect x="544" y="256" width="145" height="34" rx="4" fill="#fff8e1" stroke="#f0c040" stroke-width="0.8"/>
  <text x="554" y="269" font-size="8" fill="#e67e22" font-weight="bold">Saat araligi disi / Kur hatasi →</text>
  <text x="554" y="282" font-size="8" fill="#2c2c2c">Odeme engellenir, uyari</text>

  <rect x="544" y="296" width="145" height="34" rx="4" fill="#fdecea" stroke="#e0a0a0" stroke-width="0.8"/>
  <text x="554" y="309" font-size="8" fill="#c0392b" font-weight="bold">Kural Ihlali →</text>
  <text x="554" y="322" font-size="8" fill="#2c2c2c">Hata mesaji / yonlendirme</text>

  <!-- Kural/kur hata ok asagi -->
  <line x1="616" y1="338" x2="616" y2="378" stroke="#e67e22" stroke-width="1.1" marker-end="url(#arr-orange)"/>
  <rect x="544" y="378" width="145" height="34" rx="16" fill="#fff3e0" stroke="#e67e22" stroke-width="1.2"/>
  <text x="616" y="394" text-anchor="middle" font-size="9" fill="#e67e22" font-weight="bold">Kullanici Bilgilendirme</text>
  <text x="616" y="407" text-anchor="middle" font-size="8" fill="#e67e22">Ekranda hata gosterilir</text>

  <!-- Arrow 4→5 -->
  <line x1="699" y1="228" x2="733" y2="228" stroke="#27ae60" stroke-width="1.3" marker-end="url(#arr-green)"/>

  <!-- ══ NODE 5: Kart Bilgisi ══ -->
  <rect x="733" y="208" width="128" height="56" rx="6" fill="#fff" stroke="#bbb" stroke-width="1.2" filter="url(#sh)"/>
  <text x="797" y="230" text-anchor="middle" font-size="10" font-weight="bold" fill="#2c2c2c">Kart Bilgisi</text>
  <text x="797" y="244" text-anchor="middle" font-size="8.5" fill="#888">Kullanici secim yapar</text>
  <text x="797" y="256" text-anchor="middle" font-size="8.5" fill="#888">Kart bilgisi girer &amp; oder</text>

  <line x1="861" y1="236" x2="895" y2="236" stroke="#6b6b6b" stroke-width="1.3" marker-end="url(#arr)"/>

  <!-- ══ NODE 6: Odeme Gateway ══ -->
  <rect x="895" y="180" width="155" height="112" rx="6" fill="#fff" stroke="#bbb" stroke-width="1.2" filter="url(#sh)"/>
  <rect x="895" y="180" width="155" height="20" rx="6" fill="#d5e8d4"/>
  <rect x="895" y="192" width="155" height="8" fill="#d5e8d4"/>
  <text x="972" y="194" text-anchor="middle" font-size="9.5" font-weight="bold" fill="#2c2c2c">Odeme Gateway</text>
  <text x="905" y="214" font-size="8" fill="#555">Core: Tahsilat Paketi</text>
  <text x="905" y="227" font-size="8" fill="#555">• 3D Secure akisi</text>
  <text x="905" y="240" font-size="8" fill="#555">• Timeout kontrolu</text>
  <text x="905" y="253" font-size="8" fill="#555">• Hata yonetimi</text>
  <text x="905" y="266" font-size="7.5" fill="#aaa">Odeme servis saglayicisi iletisimi</text>
  <text x="905" y="278" font-size="7.5" fill="#aaa">3D Secure dogrulama akisi</text>

  <!-- Arrow 6→Retry (fail) -->
  <line x1="972" y1="292" x2="972" y2="338" stroke="#c0392b" stroke-width="1.2" marker-end="url(#arr-red)"/>
  <text x="978" y="317" font-size="8.5" fill="#c0392b" font-weight="bold">Basarisiz</text>

  <!-- Retry Node — no loop back arrow -->
  <rect x="895" y="338" width="155" height="68" rx="6" fill="#fdecea" stroke="#c0392b" stroke-width="1.2" filter="url(#sh)"/>
  <text x="972" y="357" text-anchor="middle" font-size="9.5" fill="#c0392b" font-weight="bold">Hata / Retry</text>
  <text x="905" y="373" font-size="8" fill="#c0392b">• 3D Secure basarisiz</text>
  <text x="905" y="386" font-size="8" fill="#c0392b">• Timeout / baglanti hatasi</text>
  <text x="905" y="399" font-size="7.5" fill="#aaa">Retry-catch senaryolari devreye girer</text>

  <!-- Arrow 6→7 (success) -->
  <line x1="1050" y1="206" x2="1084" y2="192" stroke="#27ae60" stroke-width="1.3" marker-end="url(#arr-green)"/>
  <text x="1052" y="202" font-size="8.5" fill="#27ae60" font-weight="bold">Basarili</text>

  <!-- ══ NODE 7: Police Tahsilat Yazma ══ -->
  <rect x="1084" y="150" width="152" height="80" rx="6" fill="#fff" stroke="#bbb" stroke-width="1.2" filter="url(#sh)"/>
  <rect x="1084" y="150" width="152" height="20" rx="6" fill="#d5e8d4"/>
  <rect x="1084" y="162" width="152" height="8" fill="#d5e8d4"/>
  <text x="1160" y="164" text-anchor="middle" font-size="9.5" font-weight="bold" fill="#2c2c2c">Police Tahsilat Yazma</text>
  <text x="1094" y="184" font-size="8" fill="#555">Tahsilat basariyla yazildi →</text>
  <text x="1094" y="197" font-size="8" fill="#555">Frontend JS yenilenir</text>
  <text x="1094" y="210" font-size="8" fill="#555">Success page acilir</text>
  <text x="1094" y="223" font-size="7.5" fill="#aaa">(is kurali: yazma basarisi sarti)</text>

  <!-- Tahsilat yazma hatasi -->
  <line x1="1160" y1="230" x2="1160" y2="270" stroke="#c0392b" stroke-width="1.1" stroke-dasharray="3,2" marker-end="url(#arr-red)"/>
  <rect x="1094" y="270" width="152" height="46" rx="6" fill="#fdecea" stroke="#c0392b" stroke-width="1"/>
  <text x="1170" y="287" text-anchor="middle" font-size="9" fill="#c0392b" font-weight="bold">Yazma Hatasi</text>
  <text x="1104" y="301" font-size="7.5" fill="#c0392b">Alarm tetiklenir (core sistem)</text>
  <text x="1104" y="313" font-size="7.5" fill="#c0392b">T+1 tahsilat ekibi manuel inceler</text>

  <!-- Arrow 7→8 -->
  <line x1="1236" y1="190" x2="1268" y2="190" stroke="#6b6b6b" stroke-width="1.3" marker-end="url(#arr)"/>

  <!-- ══ NODE 8: Arka Plan Kontrolleri ══ -->
  <rect x="1268" y="150" width="210" height="128" rx="6" fill="#fff" stroke="#bbb" stroke-width="1.2" filter="url(#sh)"/>
  <rect x="1268" y="150" width="210" height="20" rx="6" fill="#e8e3d8"/>
  <rect x="1268" y="162" width="210" height="8" fill="#e8e3d8"/>
  <text x="1373" y="164" text-anchor="middle" font-size="9.5" font-weight="bold" fill="#2c2c2c">Arka Plan Kontrolleri</text>
  <text x="1278" y="184" font-size="8" fill="#555">• Tahsilat kontrol sorgulari</text>
  <text x="1278" y="197" font-size="8" fill="#2c2c2c">• Hatali tahsilat tespit sorgusu ★</text>
  <text x="1278" y="210" font-size="8" fill="#555">• Retry-catch senaryolari</text>
  <text x="1278" y="223" font-size="8" fill="#555">• DB yazimi / guncelleme</text>
  <text x="1278" y="236" font-size="8" fill="#555">• Raporlama</text>
  <text x="1278" y="252" font-size="7.5" fill="#aaa">Asenkron · kullanici akisini bloklamaz</text>
  <text x="1278" y="265" font-size="7.5" fill="#aaa">Arka planda surekli calisir</text>

  <!-- ══ LEGEND ══ -->
  <rect x="28" y="455" width="680" height="88" rx="6" fill="#fff" stroke="#ddd" stroke-width="1"/>
  <text x="42" y="474" font-size="9" font-weight="bold" fill="#555" letter-spacing="1">OZEL KATKILAR</text>
  <text x="42" y="491" font-size="8.5" fill="#2c2c2c">★  Kur gecikmesi tespiti → T-1 guncel kur check yapisi kurgulandi; hatali kur ile tahsilat engellendi</text>
  <text x="42" y="507" font-size="8.5" fill="#2c2c2c">★  Hatali tahsilat tespit sorgusu hazirlandi; arka planda surekli kontrol saglandi</text>
  <text x="42" y="523" font-size="8.5" fill="#2c2c2c">★  Script tabanli toplu test senaryolari → gozle tespit edilemeyen edge case'ler onceden yakalandi</text>

  <!-- Tech Tags -->
  <rect x="730" y="463" width="70" height="20" rx="10" fill="#eee" stroke="#ccc" stroke-width="0.8"/>
  <text x="765" y="477" text-anchor="middle" font-size="8.5" fill="#555">REST API</text>
  <rect x="808" y="463" width="65" height="20" rx="10" fill="#eee" stroke="#ccc" stroke-width="0.8"/>
  <text x="840" y="477" text-anchor="middle" font-size="8.5" fill="#555">3D Secure</text>
  <rect x="881" y="463" width="44" height="20" rx="10" fill="#eee" stroke="#ccc" stroke-width="0.8"/>
  <text x="903" y="477" text-anchor="middle" font-size="8.5" fill="#555">Java</text>
  <rect x="933" y="463" width="52" height="20" rx="10" fill="#eee" stroke="#ccc" stroke-width="0.8"/>
  <text x="959" y="477" text-anchor="middle" font-size="8.5" fill="#555">Oracle</text>
  <rect x="993" y="463" width="108" height="20" rx="10" fill="#eee" stroke="#ccc" stroke-width="0.8"/>
  <text x="1047" y="477" text-anchor="middle" font-size="8.5" fill="#555">Integration Testing</text>

  <!-- Color legend -->
  <rect x="730" y="493" width="12" height="12" rx="2" fill="#d5e8d4" stroke="#a8d5a2" stroke-width="0.8"/>
  <text x="747" y="504" font-size="8" fill="#555">Basarili akis</text>
  <rect x="820" y="493" width="12" height="12" rx="2" fill="#fdecea" stroke="#e0a0a0" stroke-width="0.8"/>
  <text x="837" y="504" font-size="8" fill="#555">Hata / Retry</text>
  <rect x="910" y="493" width="12" height="12" rx="2" fill="#fff3e0" stroke="#f0c040" stroke-width="0.8"/>
  <text x="927" y="504" font-size="8" fill="#555">Kural ihlali / Engel</text>
  <rect x="1015" y="493" width="12" height="12" rx="2" fill="#e8e3d8" stroke="#ccc" stroke-width="0.8"/>
  <text x="1032" y="504" font-size="8" fill="#555">Islem / Surec</text>

</svg>
